<svg version="1.1" id="example-logo" xmlns="http://www.w3.org/2000/svg" x="0" y="0" viewBox="0 0 80.3 80.3" style="enable-background:new 0 0 80.3 80.3" xml:space="preserve"><style>.st4{fill:#fff}.st6{fill:#0c2c48}</style><circle cx="40.2" cy="40.2" r="40.2" style="fill:#f6a09c"/><path class="st6" d="M67.7 56.2c0 .7-.5 1.2-1.2 1.2H13.8c-.7 0-1.2-.5-1.2-1.2V17.4c0-.7.5-1.2 1.2-1.2h52.8c.7 0 1.2.5 1.2 1.2v38.8z"/><path style="fill:#bababa" d="M29.8 56.3h20.7v7H29.8z"/><path style="fill:#a3b9c4" d="M15.5 18.6h49.2v30.5H15.5z"/><path class="st4" d="M12.6 48.1v8.1c0 .7.5 1.2 1.2 1.2h52.8c.7 0 1.2-.5 1.2-1.2v-8.1H12.6zM55.7 68.1v-2.2c0-1.7-1.3-3-3-3h-25c-1.7 0-3 1.3-3 3v2.2h31z"/><circle class="st6" cx="40.2" cy="52.5" r="1.5"/><g><path class="st4" d="M32.8 38.2 23.5 34v-1.6l9.3-4.5v2.4l-6.6 2.8v.1l6.6 2.7v2.3z"/><path d="m44.6 24.6-7 16.7h-2.8l6.9-16.7h2.9z" style="fill:#50646f"/><path d="M56.2 33.8 46.9 38v-2.4l6.7-2.7-6.7-2.8v-2.4l9.3 4.4v1.7z" style="fill:#ed6b5a"/></g></svg>
